<svg xmlns="http://www.w3.org/2000/svg" width="149.725" height="176.325" viewBox="0 0 149.725 176.325">
    <g id="Group_161" data-name="Group 161" transform="translate(-112.638 -132.675)">
        <path id="Path_643" data-name="Path 643" d="M788.106,455.978c1.3-.145,2.624-.252,3.935-.448a17.746,17.746,0,0,1,9.68,1.208c.836.351,1.671.706,2.5,1.084a12.277,12.277,0,0,1,3.807,2.691.579.579,0,0,0,.3.187c-.106-.161-.2-.326-.318-.481a10.492,10.492,0,0,0-2.749-2.644,23.279,23.279,0,0,0-7.177-3.356,15.628,15.628,0,0,0-5.255-.394c-1.188.118-2.376.223-3.563.347a.533.533,0,0,1-.584-.259,34.174,34.174,0,0,0-9.048-9.105,29.839,29.839,0,0,0-5.889-3.382,23.362,23.362,0,0,0-10.518-1.623,37.086,37.086,0,0,0-5.518.887c-.127.029-.257.046-.4.07.421-1.528,5.528-8.012,8.691-11.054,3.245-3.12,9.037-7.362,11.345-8.3a16.839,16.839,0,0,0,4.746,8.77c-.052-.108-.1-.221-.156-.325a21.819,21.819,0,0,1-2.961-9.337,30.575,30.575,0,0,1,.022-6.192A26.3,26.3,0,0,1,780.3,408.8a30.224,30.224,0,0,1,12.421-16.03,24.428,24.428,0,0,1,9.528-3.665,20.493,20.493,0,0,1,13.753,2.538c.946.545,1.861,1.143,2.8,1.7a1.413,1.413,0,0,0,.6.227,19.416,19.416,0,0,1,7.276,2.055c.68.328,1.345.693,1.992,1.083,1.554.937,3.116,1.864,4.634,2.858a21.02,21.02,0,0,1,8.546,11.627,25.773,25.773,0,0,1,1.182,8.148,1.135,1.135,0,0,0,.451.978,62.79,62.79,0,0,1,18.292,26.222,60.546,60.546,0,0,1,3.107,12.187,61.623,61.623,0,0,1,.66,10.81,63.276,63.276,0,0,1-3.348,18.686c-.053.157-.1.315-.178.543.229.01.42.028.609.026a14.832,14.832,0,0,1,3.657.33,10.4,10.4,0,0,1,7.954,7.625,16.038,16.038,0,0,1,.581,4.637q0,5.978.009,11.957,0,5.9,0,11.805a9.81,9.81,0,0,1-1.544,5.5c-.358.545-.794,1.038-1.191,1.552,1.917,7.845,3.838,15.706,5.786,23.677-.283-.1-.464-.162-.638-.234-4.146-1.706-8.279-3.449-12.443-5.113a165.5,165.5,0,0,0-20.7-6.66c-4.283-1.089-8.6-2.032-12.964-2.73-3.483-.558-6.978-1.045-10.474-1.52-1.415-.192-2.843-.29-4.268-.389-2.532-.176-5.065-.344-7.6-.471-1.83-.092-3.664-.168-5.5-.149q-5.119.051-10.237.229c-2.183.076-4.368.2-6.543.408-2.409.225-4.812.522-7.208.86q-4.341.611-8.664,1.35c-2.069.352-4.119.816-6.184,1.2-2.908.54-5.791,1.183-8.641,1.98-3.594,1-7.1,2.274-10.618,3.5-5.459,1.906-10.779,4.158-16.117,6.367-.292.121-.585.238-.926.377V488.811c.64-.027,1.289-.008,1.936-.012s1.312,0,1.967,0h11.865a62.485,62.485,0,0,1-1.332-37.12,60.913,60.913,0,0,1,9.706-20.309,62.6,62.6,0,0,1,16.674-15.8,61.017,61.017,0,0,1,8.186-4.482,24.383,24.383,0,0,0-.291,7.191c-14.081,7.809-23.618,19.264-28,34.794a55.285,55.285,0,0,0,1.918,35.658l3.315.394-.214-.511a53.516,53.516,0,0,1-3.67-13.272,52.27,52.27,0,0,1-.358-11.421,53.113,53.113,0,0,1,5.354-19.52,1.2,1.2,0,0,1,.717-.633,27.426,27.426,0,0,1,7.5-1.674,20.4,20.4,0,0,1,11.962,2.469,38,38,0,0,1,10.561,8.561C786.707,454.016,787.367,454.993,788.106,455.978Zm5.058-34.69h0a.4.4,0,0,0,.035-.094,33.737,33.737,0,0,1,1.182-5.871c.046-.162.089-.324.132-.486l-.11-.04c-.317.646-.671,1.276-.946,1.939a19.767,19.767,0,0,0-1.217,11.221,15.879,15.879,0,0,0,1.645,4.848,2.181,2.181,0,0,0,.125.219,2.445,2.445,0,0,0,.16.188,30.086,30.086,0,0,1-.708-3.48,14.183,14.183,0,0,0,1.725,4.085,24.316,24.316,0,0,1-.632-3.131,14.054,14.054,0,0,0,1.646,3.733c-.07-.416-.18-.818-.28-1.222s-.2-.816-.283-1.227c-.079-.388-.14-.779-.209-1.169a16.054,16.054,0,0,0,1.835,4.271,37.51,37.51,0,0,1-.935-4.529,29.864,29.864,0,0,1-.268-4.678,27.181,27.181,0,0,1,.453-4.612c.3-1.508.658-3.005.99-4.507a17.8,17.8,0,0,0-2.341,6.655,35.451,35.451,0,0,1,1.339-7.362,17.582,17.582,0,0,0-2.334,6.365,36.49,36.49,0,0,1,1.323-6.984,10,10,0,0,0-1.07,2,19.407,19.407,0,0,0-1.1,3.61C793.3,421.132,793.345,421.281,793.164,421.288Zm-12.815,48.2.115-.088a4.437,4.437,0,0,1,.435.3c.418.365.825.743,1.239,1.111a33.08,33.08,0,0,0,6.138,4.4,16.518,16.518,0,0,0,6.056,2.1,1.8,1.8,0,0,1,.385.135l-.016.121a4.07,4.07,0,0,1-.415.046c-.235,0-.471-.022-.706-.017a24.5,24.5,0,0,0-7.93,1.539,3.713,3.713,0,0,0-.968.526,1.542,1.542,0,0,0-.332,2.231c.1.152.218.3.333.443a13.465,13.465,0,0,0,5.293,3.926,22.52,22.52,0,0,0,7.334,1.692c2.748.207,5.505.354,8.261.415,2.081.046,4.168-.062,6.251-.143a16.864,16.864,0,0,1,6.069.751c.813.271,1.63.524,2.449.775a14.528,14.528,0,0,0,3.151.654,10.3,10.3,0,0,0,4.9-.965c1.512-.65,3.026-1.294,4.537-1.947a6.288,6.288,0,0,0,.767-.38,4.17,4.17,0,0,0,2.112-2.928,1.717,1.717,0,0,1,.13-.336.326.326,0,0,1,.147.278c-.077.617-.155,1.233-.251,1.847a3.664,3.664,0,0,1-1.49,2.43,13.6,13.6,0,0,1-1.175.78c-.547.328-1.111.629-1.664.948a1.967,1.967,0,0,0-.265.22.314.314,0,0,0,.283.05c.73-.252,1.468-.483,2.184-.769a11.289,11.289,0,0,0,1.674-.805,3.01,3.01,0,0,0,1.434-2.1,14.56,14.56,0,0,0,.2-1.75c.1-1.779.216-3.56.255-5.341q.058-2.621-.032-5.244c-.053-1.527-.2-3.05-.316-4.575a2.408,2.408,0,0,0-.081-.361l-.109,0a3.507,3.507,0,0,0-.125.516c-.079.853-.159,1.706-.212,2.561-.105,1.694-.142,3.394-.3,5.083a11.989,11.989,0,0,1-1.705,5.124,5.3,5.3,0,0,1-.477.648,1.058,1.058,0,0,1-.29.167.813.813,0,0,1-.041-.194.446.446,0,0,1,.052-.192,7.722,7.722,0,0,0,.7-1.937,18.316,18.316,0,0,0,.705-7.128,25.392,25.392,0,0,1,.129-5.888c.245-1.73.536-3.454.778-5.184a22.763,22.763,0,0,0,.219-4.678,46.449,46.449,0,0,0-1.344-7.993,96.515,96.515,0,0,0-3.274-10.059,1.48,1.48,0,0,0-.119-.205c-.14.124-.262.231-.382.34a24.048,24.048,0,0,1-5.742,4.06.959.959,0,0,0-.614,1.09,10.765,10.765,0,0,1,.111,1.355c0,1.076-.025,2.152-.047,3.228-.017.841-.05,1.681-.063,2.521a3.975,3.975,0,0,0,.068.558l.141.02a4.3,4.3,0,0,0,.24-.57c.324-1.234.656-2.468.948-3.71a8.484,8.484,0,0,0,.163-4.335,1.075,1.075,0,0,1,.019-.347l.114-.011c.071.18.157.356.21.541a17.962,17.962,0,0,1-.557,11.764q-.465,1.2-.976,2.379a13.053,13.053,0,0,0-1.056,6.2,4.154,4.154,0,0,0,.136.584c.563-.276.747-.823,1.162-1.119.438-.312.854-.657,1.306-.946a3.132,3.132,0,0,1,1.393-.769,1.879,1.879,0,0,1-.168.32,11.852,11.852,0,0,0-2.633,5.429c-.373,1.672-.746,3.344-1.071,5.026a7.328,7.328,0,0,0-.179,2.1,8.7,8.7,0,0,0,2.019,5.013c.094.107.224.216.1.415a2.012,2.012,0,0,1-.283-.2c-.692-.712-1.394-1.414-2.062-2.146a13.9,13.9,0,0,1-2.6-4.114c-.46-1.119-.9-2.245-1.332-3.376a7.616,7.616,0,0,1-.542-2.348,1.333,1.333,0,0,0-.091-.307.433.433,0,0,0-.086.286,22.259,22.259,0,0,0,.447,4.155c.322,1.58.728,3.143,1.018,4.729a8.785,8.785,0,0,0,1.326,3.29,20.977,20.977,0,0,0,3.042,3.424,1.733,1.733,0,0,0,.5.341,7.7,7.7,0,0,0,2.685.81,4.452,4.452,0,0,1,.581.108,11.028,11.028,0,0,1-4.556.223,23.636,23.636,0,0,1-2.565-.723,8.115,8.115,0,0,1-3.051-1.719c-.787-.683-1.564-1.379-2.351-2.063a13.747,13.747,0,0,0-2.367-1.71,5.918,5.918,0,0,0-3.435-.793c-.736.065-1.474.134-2.2.248a18.5,18.5,0,0,1-8.958-1.152,1.459,1.459,0,0,1-.3-.2.677.677,0,0,1,.37-.079,9.732,9.732,0,0,0,1.5,0,41.69,41.69,0,0,0,5.993-1.55,3.992,3.992,0,0,0,2.272-5.185,8.29,8.29,0,0,0-1.034-1.663,20.924,20.924,0,0,0-6.2-5.466c-.148-.085-.354-.131-.38-.425a14.093,14.093,0,0,1,2.683,1.035c.879.391,1.748.806,2.69,1.242a5.436,5.436,0,0,0-.217-.6,7.626,7.626,0,0,0-3.007-3.31,28.242,28.242,0,0,0-3.575-1.745,13.484,13.484,0,0,0-6.109-1.03q-1.256.094-2.512.208a31.216,31.216,0,0,0-5.8,1.017,24.151,24.151,0,0,0-4.357,1.7c-.155.079-.351.125-.349.435a30.932,30.932,0,0,1,10.99-.243,1.022,1.022,0,0,1-.46.064,16.235,16.235,0,0,0-10.409,3.012,3.481,3.481,0,0,0-.678.6,1.239,1.239,0,0,0-.322,1.211,2.32,2.32,0,0,1,.007.553,3.963,3.963,0,0,1-.471-.163c-.134-.068-.25-.17-.377-.251a1.788,1.788,0,0,0-1.993.082,1.568,1.568,0,0,0-.58,1.79,3.5,3.5,0,0,0,.662,1.292,4.718,4.718,0,0,0,1.619,1.343c.9.446,1.827.847,2.745,1.262.047.021.12-.015.2-.028-.043-.489-.4-.787-.58-1.174s-.352-.8-.5-1.209A3.155,3.155,0,0,1,780.349,469.484Zm75.307,56.986c.352.068.614.123.877.167a.394.394,0,0,1,.355.365c.023.132.068.26.1.39q2,7.707,3.993,15.415a.784.784,0,0,0,.556.615c2.655,1,5.3,2.026,7.952,3.042.12.046.245.083.446.151-1.421-5.98-2.932-11.869-4.487-17.8.2.016.313.017.426.036a2.724,2.724,0,0,0,3.135-1.931,5.623,5.623,0,0,0,.29-1.883q-.008-7.971-.007-15.942c0-2.708,0-5.415-.007-8.123a8.812,8.812,0,0,0-.681-3.59,4.731,4.731,0,0,0-3.339-2.82,8.183,8.183,0,0,0-1.9-.225c-5.449-.018-10.9-.011-16.345-.01-.147,0-.293.016-.48.028q.251,22.305.5,44.543l8.743,2.536C855.743,536.455,855.7,531.5,855.656,526.471Zm-55.6,6.6c1.2-6.659,2.4-13.266,3.588-19.873l.1-.008c.636,3.322,1.228,6.652,1.849,9.977s1.233,6.663,1.846,9.987l8.207.448c2.134-12.134,4.2-24.265,6.219-36.465a85.641,85.641,0,0,0-8.99.846q-1.146,9.371-2.288,18.71l-.1,0c-.958-5.979-1.918-11.958-2.884-17.982a49.566,49.566,0,0,1-7.922.762c-.927,5.732-1.846,11.415-2.765,17.1l-.1,0c-.727-5.77-1.405-11.547-2.12-17.333a46.389,46.389,0,0,1-9.154-2.214q3.072,18.243,6.3,36.316Zm-66.4,13.525,8.473-3.256q.028-6.5.057-12.989c.159-.051.252-.086.348-.109,2.219-.538,4.436-1.085,6.659-1.608a12.238,12.238,0,0,0,3.673-1.343,5.873,5.873,0,0,0,2.813-3.89,11.319,11.319,0,0,0,.264-2.2q.14-10.742.234-21.485a8.513,8.513,0,0,0-.1-1.355,4.444,4.444,0,0,0-3.688-3.9,7.965,7.965,0,0,0-1.553-.137q-8.322-.014-16.644-.006h-.531ZM759.474,516.1h-.006q-.071,5.649-.139,11.3-.029,2.572-.031,5.145a6.038,6.038,0,0,0,.418,2.268,3.32,3.32,0,0,0,2.45,2.114,7.246,7.246,0,0,0,3.151-.062c3.539-.727,7.093-1.364,10.667-1.891a9.521,9.521,0,0,0,3.609-1.206,5.266,5.266,0,0,0,2.523-3.437,8.352,8.352,0,0,0,.212-1.745q.153-14.426.275-28.853a9.09,9.09,0,0,0-.074-1.256,4.257,4.257,0,0,0-2.843-3.657,7.737,7.737,0,0,0-2.815-.49c-3.8-.007-7.6-.012-11.4.006a8.4,8.4,0,0,0-1.8.207,4.683,4.683,0,0,0-3.851,3.967,11.753,11.753,0,0,0-.172,2.005Q759.547,508.31,759.474,516.1Zm78.664-96.168c-.074-.887-.114-1.779-.229-2.66a14.342,14.342,0,0,0-2.025-5.862,10.523,10.523,0,0,0-6.236-4.731,12.725,12.725,0,0,0-5.795-.2,17.684,17.684,0,0,0-6.946,2.964,26.541,26.541,0,0,0-9.663,12.375,22.086,22.086,0,0,0-1.513,11.511,14.535,14.535,0,0,0,2.008,5.607,10.393,10.393,0,0,0,6.252,4.7,12.816,12.816,0,0,0,5.993.179,18.227,18.227,0,0,0,7.113-3.206,26.528,26.528,0,0,0,8.608-10.548A25.171,25.171,0,0,0,838.138,419.935ZM833.952,502.1l9.636.384-1.62-8.154h-.457c-2.808,0-5.616.03-8.423-.015a8.024,8.024,0,0,0-3.133.581A34.84,34.84,0,0,1,825,496.58a.726.726,0,0,0-.168.089c-.1,1.076.329,37.594.446,37.983q8.467,1.122,16.844,3.065c.479-2.613.947-5.168,1.423-7.769-3.1-.637-6.171-1.133-9.285-1.635-.034-3.038-.068-6.038-.1-9.108l7.251.891v-7.437L834.07,512C834.031,508.692,833.992,505.435,833.952,502.1ZM769.295,460.3l.061-.155c.177.028.353.06.53.082a5.849,5.849,0,0,0,.849.086,17.584,17.584,0,0,0,4.041-.516,7.73,7.73,0,0,0,2.856-1.338,2.707,2.707,0,0,0,1.072-3.031,11.454,11.454,0,0,0-2.4-4.609,14.445,14.445,0,0,0-10.3-4.835,23.7,23.7,0,0,0-7.215.937.835.835,0,0,0-.237.085.564.564,0,0,0-.221.188c-.168.343-.317.7-.5,1.1,1.617,1.115,3.313,2.031,4.963,3.038a19.348,19.348,0,0,1-5.557-1.619,50.872,50.872,0,0,0-2.815,9.906c-.614,3.363-.912,9.255-.593,10.24,3.026-.547,6.042-1.14,9.076-1.624a19.994,19.994,0,0,0,6.908-2.678A3.508,3.508,0,0,0,771.7,462.7a1.475,1.475,0,0,0-.845-1.664c-.357-.186-.74-.319-1.106-.486C769.589,460.482,769.445,460.387,769.295,460.3Zm69.591-44.9a.424.424,0,0,0,.035-.114,1.641,1.641,0,0,0-.021-.251,19.963,19.963,0,0,0-1.9-5.72,16.587,16.587,0,0,0-15.3-9.421,19.819,19.819,0,0,0-8.684,1.955,26.333,26.333,0,0,0-11.063,9.512,26.755,26.755,0,0,0-4.7,18.648,19.274,19.274,0,0,0,2.467,7.465,16.577,16.577,0,0,0,12.78,8.484A19.006,19.006,0,0,0,821,445c.13-.043.255-.1.359-.142-1.046.152-2.1.359-3.163.45a12.057,12.057,0,0,1-7.321-1.571c-1.115-.657-2.234-1.309-3.331-1.993a13.951,13.951,0,0,1-1.638-1.173,13.366,13.366,0,0,1-4.109-6.406,20.443,20.443,0,0,1-.357-10.222,27.986,27.986,0,0,1,5.885-12.346,24.539,24.539,0,0,1,8.685-6.915,17.706,17.706,0,0,1,6.045-1.648,12.332,12.332,0,0,1,7.234,1.553c1.375.776,2.733,1.585,4.077,2.413a10.716,10.716,0,0,1,3.046,2.908,14.058,14.058,0,0,1,1.91,3.706C838.527,414.2,838.7,414.794,838.886,415.4Zm16.3,73.383A56.137,56.137,0,0,0,841.862,427.5c-.064.178-.1.269-.129.361-.253.73-.485,1.468-.768,2.186a.667.667,0,0,0,.164.832A53.273,53.273,0,0,1,853.4,450.806a52.62,52.62,0,0,1,2.764,13.744,50.658,50.658,0,0,1,.036,6.2,55.122,55.122,0,0,1-.768,6.656,52.845,52.845,0,0,1-3.239,11,3.65,3.65,0,0,0-.109.379ZM825.5,399.066l.029-.076a2.866,2.866,0,0,0-.341-.19c-.889-.351-1.763-.753-2.675-1.031a16.47,16.47,0,0,0-6.638-.542,23.844,23.844,0,0,0-3.882.587,24.411,24.411,0,0,0-13.5,9.751,2.23,2.23,0,0,0-.144.3,1.1,1.1,0,0,0,.153-.09c.154-.156.305-.313.456-.471a33.467,33.467,0,0,1,5-4.382c.4-.278.77-.6,1.141-.912.447-.379.516-.388,1.012-.078.541.339,1.088.669,1.633,1a.82.82,0,0,0,.9.1c.45-.282.875-.6,1.365-.945l-2.57-1.545c.174-.123.3-.209.419-.3a1.19,1.19,0,0,1,1.534,0c.434.316.9.592,1.341.894.476.323.644.313,1.15.026a14.9,14.9,0,0,1,1.7-.874,21.116,21.116,0,0,1,10.475-1.436C824.538,398.911,825.017,399,825.5,399.066ZM773.49,479.6l.035-.073c-.452-.305-.89-.635-1.359-.91a44.3,44.3,0,0,0-5.451-2.719,11.676,11.676,0,0,0-4.917-.9,21.076,21.076,0,0,0-5.064.8c-.755.214-1.5.474-2.291.727l.268,1.287a2.835,2.835,0,0,0,.33-.082,14.325,14.325,0,0,1,3.693-.739c.2-.022.436-.082.593.16a1.039,1.039,0,0,1-.545.51,30.655,30.655,0,0,0-3.292,2.655c-.134.1-.19.232-.055.389a.465.465,0,0,0,.144-.027c.161-.09.321-.183.477-.283a30.169,30.169,0,0,1,5.021-2.554,6.774,6.774,0,0,1,3.2-.56c.835.078,1.672.169,2.5.313a21.728,21.728,0,0,1,5.742,1.647C772.825,479.383,773.164,479.478,773.49,479.6Zm-1.251,6.2c.094.056.187.115.282.168,1.231.689,2.484,1.343,3.69,2.073a79.359,79.359,0,0,0,8.6,4.525,35.3,35.3,0,0,0,12.407,3.046,51.53,51.53,0,0,0,8.452-.4,2.381,2.381,0,0,0,.42-.122l-.018-.126c-.227-.008-.454-.029-.68-.021-.521.018-1.041.057-1.561.075a55.007,55.007,0,0,1-7.047-.329c-1.069-.1-2.138-.237-3.194-.43a40.3,40.3,0,0,1-6.546-1.986,33.751,33.751,0,0,1-6.01-2.818,17.9,17.9,0,0,0-1.878-.972c-1.619-.74-4.874-2.178-4.874-2.178A13.829,13.829,0,0,0,772.239,485.8Zm40.527-91.078c-.062-.05-.083-.08-.111-.087-.163-.04-.326-.078-.491-.111a16.506,16.506,0,0,0-7.051.158,22.2,22.2,0,0,0-10.115,5.4,26.558,26.558,0,0,0-8.9,18.136c-.07.947-.009,1.9-.009,2.857a1.091,1.091,0,0,0,.092-.441,29.6,29.6,0,0,1,.519-4.655,27.181,27.181,0,0,1,7.542-14.054c5.018-5,11.017-7.633,18.205-7.2C812.537,394.73,812.633,394.725,812.766,394.725ZM784.6,409.445a16.854,16.854,0,0,0-2.205,8.211,16.168,16.168,0,0,0,1.9,8.079c-.061-.777-.3-1.528-.323-2.309a15.281,15.281,0,0,0,1.331,3.132.784.784,0,0,0,.015-.33c-.21-1.225-.456-2.445-.628-3.675a26.251,26.251,0,0,1-.114-5.938,42.007,42.007,0,0,1,1.018-5.9c.027-.116.033-.237.048-.356a16.8,16.8,0,0,0-2.086,5.893A48.287,48.287,0,0,1,784.6,409.445Zm26.86,58.257.157.037c.068-.128.142-.252.2-.384.311-.689.636-1.371.921-2.07a26.451,26.451,0,0,0,.955-2.541c.353-1.207.583-2.45.921-3.662.387-1.389.832-2.761,1.256-4.14.045-.145.1-.294.323-.271.209.2.113.454.085.7a10.265,10.265,0,0,0-.143,1.5c.049,1.275.153,2.548.24,3.822.019.272.06.544.091.816l.13.011c.039-.2.086-.4.115-.6.066-.448.128-.9.183-1.348a14.68,14.68,0,0,0,.151-3.466,17.8,17.8,0,0,1-.01-4.023,18.253,18.253,0,0,0,.1-2.011c0-.873-.043-1.747-.072-2.62a1.1,1.1,0,0,0-.054-.226c-.646-.007-.72.075-.706.688.015.655.025,1.31.024,1.965a5.725,5.725,0,0,1-.056.8,15.229,15.229,0,0,1-1.409,4.5,14.414,14.414,0,0,0-1.266,4.073,31.093,31.093,0,0,1-1.4,5.56c-.258.726-.453,1.476-.658,2.22A4.262,4.262,0,0,0,811.462,467.7Zm-6.208-44.848-.109-.028a17.812,17.812,0,0,0-1.765,4.507q.358-2.615.715-5.229a1.314,1.314,0,0,0-.317.434,14.545,14.545,0,0,0-1.358,8.532,8.2,8.2,0,0,0,1.217,3.338,2.558,2.558,0,0,0,.23.27l.069-.042-.345-1.6a8.7,8.7,0,0,0,1.286,2.263,1.174,1.174,0,0,0-.045-.343,18.222,18.222,0,0,1-.531-5.248,41.715,41.715,0,0,1,.774-5.841C805.136,423.527,805.194,423.191,805.254,422.854Zm9.889-16.614c.807.482,1.523.886,2.212,1.333a.684.684,0,0,0,.852-.012,16.2,16.2,0,0,1,9.128-2.551.652.652,0,0,0,.134-.025c-.026-.041-.036-.079-.059-.091-.118-.063-.237-.125-.36-.178a9.678,9.678,0,0,0-5.292-.551,23.12,23.12,0,0,0-5.271,1.478C816.068,405.808,815.664,406.007,815.143,406.24Zm-15.786-12.873-.01.117c.508.324,1.014.651,1.526.97a.788.788,0,0,0,.768.015,13.819,13.819,0,0,1,1.461-.542,21.474,21.474,0,0,1,7.394-.655c.2.012.4.027.593.041a1.04,1.04,0,0,0-.443-.3,10.188,10.188,0,0,0-3.289-.695,20.882,20.882,0,0,0-5.413.434C801.077,392.928,800.22,393.16,799.357,393.367Zm14.162,97.809-.016.129c.285.073.573.135.853.22a29.627,29.627,0,0,0,6.157,1.45,15.163,15.163,0,0,0,2.409.07,11.752,11.752,0,0,0,4.881-1.765c.071-.04.115-.128.172-.192a.57.57,0,0,0-.332.085,7.451,7.451,0,0,1-1.32.6,20.97,20.97,0,0,1-2.475.431,15,15,0,0,1-4.55-.342,27.478,27.478,0,0,0-4.841-.594C814.144,491.266,813.832,491.208,813.519,491.176Zm-1.372-82.885c.612.382,1.164.731,1.72,1.073a2.991,2.991,0,0,0,.574.309.619.619,0,0,0,.469.006c.475-.323.923-.688,1.418-1.065l-2.582-1.54ZM759.114,490.35c.561-.471,1.07-.858,1.533-1.295,1-.945,1.98-1.916,2.967-2.877a.089.089,0,0,0,.016-.046.07.07,0,0,0,0-.045c-.007-.014-.025-.022-.05-.043l-5.116,3.02Zm40.994-95.186c-.023-.052-.029-.109-.06-.127-.566-.356-1.128-.723-1.711-1.049a.66.66,0,0,0-.52,0c-.448.2-.875.457-1.337.705.552.363,1.079.714,1.612,1.056a.82.82,0,0,0,.9.02C799.357,395.567,799.726,395.372,800.108,395.164Z" transform="translate(-615.513 -256.158)"/>
        <path id="Path_644" data-name="Path 644" d="M917.7,818.98c.041,2.969.081,5.938.122,8.947H919.2a11.814,11.814,0,0,1,.061,2.78l-5.015.1c-.037-.917-.074-1.811-.113-2.77h1.58c-.093-3.648-.184-7.233-.277-10.852h-1.671c-.029-.921-.058-1.816-.087-2.74.145-.015.242-.032.339-.034,1.512-.034,3.025-.054,4.537-.106a.573.573,0,0,1,.641.408q1.991,4.574,4.007,9.136a1.015,1.015,0,0,0,.295.427c.043-2.367.085-4.734.129-7.158h-1.583V814.3l5.662.135c-.03.948-.058,1.843-.087,2.757h-1.758c-.134,4.562-.269,9.107-.4,13.667h-2.579c-1.6-4.024-3.275-7.994-5.072-11.908Z" transform="translate(-732.906 -525.368)" fill="#fff"/>
        <path id="Path_645" data-name="Path 645" d="M954.416,817.772l-1.448-.09c.039-.913.075-1.792.112-2.666a98.254,98.254,0,0,1,11.165.751c-.17,1.686-.341,3.379-.511,5.068a.732.732,0,0,1-.179.042c-.7-.065-1.4-.133-2.167-.206l.184-2.415-3.845-.311c-.087,1.266-.172,2.5-.259,3.773l3.054.246c-.077.924-.149,1.8-.228,2.75l-3.013-.213c-.1,1.431-.2,2.815-.3,4.275l3.631.291c.08-.8.157-1.578.241-2.423.754.043,1.493.106,2.267.227-.174,1.723-.346,3.419-.518,5.123l-10.218-.732c.037-.9.073-1.777.111-2.683h1.325C953.946,828.243,954.483,818.45,954.416,817.772Z" transform="translate(-757.396 -525.803)" fill="#fff"/>
        <path id="Path_646" data-name="Path 646" d="M883.767,817.965l-1.866.152c.109,1.276.215,2.508.326,3.8l-2.1.2c-.221-2.208-.435-4.357-.655-6.549,3.829-.385,7.614-.655,11.475-.8.107,2.191.2,4.348.265,6.563l-2.06.118c-.072-1.283-.141-2.517-.213-3.817l-1.918.11c.221,3.606.44,7.172.661,10.775h1.765c.05.884.1,1.766.152,2.705l-6.5.457-.242-2.725,1.76-.182C884.334,825.171,884.054,821.609,883.767,817.965Z" transform="translate(-711.263 -525.66)" fill="#fff"/>
        <path id="Path_647" data-name="Path 647" d="M827.541,824.2l-1.735.32-.56-2.692c3.73-.789,7.441-1.43,11.229-1.987l.734,5-2.331.362-.388-2.257-3.678.622c.167,1.249.424,2.455.649,3.73l2.59-.43c.22.884.307,1.778.477,2.714l-2.577.466c.251,1.4.5,2.769.752,4.2l1.791-.287c.153.889.3,1.758.464,2.689-1.059.267-2.138.392-3.2.609s-2.1.407-3.19.616l-.56-2.687,1.568-.349C829.625,834.433,827.984,825.864,827.541,824.2Z" transform="translate(-676.95 -528.878)" fill="#fff"/>
        <path id="Path_648" data-name="Path 648" d="M1016.538,823.857c.094-.436.17-.788.26-1.2l2.1.4-.992,4.889-2.036-.4c0-.233,0-.446,0-.66a2.536,2.536,0,0,0-.425-1.428,1.348,1.348,0,0,0-1.489-.589,1.329,1.329,0,0,0-.9,1.368,1.549,1.549,0,0,0,.4,1.061c.32.344.656.674.994,1,.459.444.934.871,1.389,1.319a4.8,4.8,0,0,1,1.454,3.885,7.858,7.858,0,0,1-.93,3.373,3.657,3.657,0,0,1-2.324,1.879,2.546,2.546,0,0,1-3.01-1.342l-.25-.474c-.095.454-.171.818-.256,1.228l-1.922-.313c.27-1.843.578-3.65.886-5.516l1.943.322c0,.476-.01.893,0,1.311a2.33,2.33,0,0,0,.522,1.443,1.187,1.187,0,0,0,1.946.032,2.172,2.172,0,0,0,.188-2.578,10.6,10.6,0,0,0-1.017-1.181c-.479-.518-.977-1.017-1.465-1.529a4.731,4.731,0,0,1-1.145-4.539,5.782,5.782,0,0,1,.649-1.792,3.57,3.57,0,0,1,2.352-1.758,2.482,2.482,0,0,1,2.828,1.332C1016.36,823.531,1016.43,823.657,1016.538,823.857Z" transform="translate(-792.967 -530.243)" fill="#fff"/>
        <path id="Path_649" data-name="Path 649" d="M991.229,819.7c.075-.451.135-.806.2-1.209l2.112.3c-.247,1.648-.487,3.252-.738,4.926l-2.021-.287c-.051-.42-.082-.787-.145-1.15a1.925,1.925,0,0,0-.579-1.1,1.236,1.236,0,0,0-1.389-.31,1.223,1.223,0,0,0-.78,1.137,1.577,1.577,0,0,0,.443,1.293c.345.343.716.659,1.082.981.542.478,1.1.933,1.627,1.43a4.617,4.617,0,0,1,1.428,3.389,8.176,8.176,0,0,1-.623,3.344,4.1,4.1,0,0,1-1.574,1.918,2.665,2.665,0,0,1-3.921-.979,3.206,3.206,0,0,0-.2-.3l-.181,1.223-1.945-.218c.2-1.859.4-3.672.6-5.55l1.991.224c0,.159-.007.288,0,.417a8.622,8.622,0,0,0,.089,1.151,2.852,2.852,0,0,0,.346.881,1.259,1.259,0,0,0,2.355-.152,2.1,2.1,0,0,0-.225-2.324,12.241,12.241,0,0,0-.984-1.008c-.589-.575-1.2-1.129-1.777-1.714a4.47,4.47,0,0,1-1.209-3.851,5.945,5.945,0,0,1,.59-2.176,3.4,3.4,0,0,1,2.635-1.968,2.386,2.386,0,0,1,2.51,1.225C991.027,819.37,991.1,819.493,991.229,819.7Z" transform="translate(-777.418 -527.707)" fill="#fff"/>
        <path id="Path_650" data-name="Path 650" d="M864.189,830.935l1.794-.188c.1.912.191,1.8.29,2.735l-6.522.808-.391-2.708,1.77-.275c-.475-3.582-.946-7.138-1.423-10.736l-1.884.231c-.132-.92-.259-1.8-.394-2.75l7.021-.87a10.469,10.469,0,0,1,.342,2.758l-.881.11-.961.118C863.362,823.756,863.772,827.32,864.189,830.935Z" transform="translate(-697.313 -527.191)" fill="#fff"/>
        <path id="Path_651" data-name="Path 651" d="M1074.214,851.193c-.137-.044-.277-.079-.411-.132a109.48,109.48,0,0,0-19.11-5.625c-1.2-.243-2.408-.462-3.612-.694-.181-.034-.365-.065-.542-.115a1.676,1.676,0,0,1-1.22-1.937,1.645,1.645,0,0,1,1.919-1.3,3.313,3.313,0,0,1,.489.118,123.332,123.332,0,0,1,19.161,7.787c1.074.556,2.127,1.151,3.189,1.73a1.316,1.316,0,0,1,.156.12Z" transform="translate(-818.707 -542.496)" fill="#fff"/>
        <path id="Path_652" data-name="Path 652" d="M746.951,851.066c.241-.142.41-.247.584-.344a116.933,116.933,0,0,1,21.726-9.189,3.306,3.306,0,0,1,.637-.144,1.636,1.636,0,0,1,1.819,1.31,1.655,1.655,0,0,1-1.275,1.943c-.886.193-1.782.34-2.672.515a112.411,112.411,0,0,0-20.309,5.823c-.109.044-.219.083-.331.118C747.1,851.106,747.068,851.088,746.951,851.066Z" transform="translate(-627.409 -542.503)" fill="#fff"/>
        <path id="Path_653" data-name="Path 653" d="M863.61,557.778a3.16,3.16,0,0,0,.349,1.218c.149.41.321.812.5,1.209s.537.685.58,1.174c-.084.013-.157.049-.2.028-.918-.414-1.843-.815-2.745-1.261a4.719,4.719,0,0,1-1.619-1.343,3.514,3.514,0,0,1-.662-1.292,1.568,1.568,0,0,1,.58-1.79,1.788,1.788,0,0,1,1.993-.082c.128.081.244.183.377.251a3.971,3.971,0,0,0,.471.163,2.335,2.335,0,0,0-.007-.553,1.239,1.239,0,0,1,.322-1.211,3.489,3.489,0,0,1,.678-.6,16.237,16.237,0,0,1,10.409-3.012,1.026,1.026,0,0,0,.46-.064,30.923,30.923,0,0,0-10.99.243c0-.31.195-.357.349-.435a24.146,24.146,0,0,1,4.358-1.7,31.254,31.254,0,0,1,5.8-1.017q1.255-.112,2.513-.208a13.493,13.493,0,0,1,6.11,1.03,28.27,28.27,0,0,1,3.574,1.745,7.629,7.629,0,0,1,3.007,3.309,5.469,5.469,0,0,1,.217.6c-.942-.436-1.811-.851-2.69-1.242a14.086,14.086,0,0,0-2.683-1.035c.025.293.231.34.379.424a20.922,20.922,0,0,1,6.2,5.466,8.287,8.287,0,0,1,1.034,1.663A3.992,3.992,0,0,1,890,564.646a41.761,41.761,0,0,1-5.994,1.55,9.731,9.731,0,0,1-1.5,0,.673.673,0,0,0-.37.079,1.446,1.446,0,0,0,.3.2,18.5,18.5,0,0,0,8.958,1.153c.73-.114,1.467-.182,2.2-.248a5.92,5.92,0,0,1,3.435.793,13.761,13.761,0,0,1,2.366,1.71c.787.683,1.564,1.38,2.351,2.063a8.11,8.11,0,0,0,3.051,1.719,23.618,23.618,0,0,0,2.564.723,11.03,11.03,0,0,0,4.556-.223,4.441,4.441,0,0,0-.581-.107,7.7,7.7,0,0,1-2.685-.811,1.721,1.721,0,0,1-.5-.341,20.97,20.97,0,0,1-3.042-3.423,8.792,8.792,0,0,1-1.326-3.29c-.29-1.585-.7-3.149-1.017-4.729a22.279,22.279,0,0,1-.448-4.155.435.435,0,0,1,.086-.287,1.322,1.322,0,0,1,.091.307,7.613,7.613,0,0,0,.543,2.348c.431,1.131.872,2.257,1.332,3.376a13.91,13.91,0,0,0,2.6,4.114c.669.732,1.37,1.434,2.062,2.146a2.01,2.01,0,0,0,.283.2c.123-.2-.007-.309-.1-.415a8.708,8.708,0,0,1-2.019-5.013,7.326,7.326,0,0,1,.179-2.1c.325-1.681.7-3.354,1.071-5.026a11.853,11.853,0,0,1,2.633-5.429,1.836,1.836,0,0,0,.169-.32,3.132,3.132,0,0,0-1.393.77c-.452.289-.868.634-1.306.946-.415.3-.6.842-1.162,1.119a4.132,4.132,0,0,1-.136-.584,13.058,13.058,0,0,1,1.055-6.2q.512-1.178.976-2.378a17.961,17.961,0,0,0,.557-11.764c-.053-.186-.139-.361-.21-.542l-.114.011a1.082,1.082,0,0,0-.019.347,8.48,8.48,0,0,1-.163,4.335c-.292,1.242-.623,2.476-.948,3.71a4.206,4.206,0,0,1-.239.57l-.141-.02a3.96,3.96,0,0,1-.068-.558c.014-.841.046-1.681.063-2.522.022-1.076.049-2.151.047-3.228a10.723,10.723,0,0,0-.111-1.355.96.96,0,0,1,.613-1.09,24.057,24.057,0,0,0,5.743-4.06c.121-.109.243-.216.382-.34a1.531,1.531,0,0,1,.119.205,96.532,96.532,0,0,1,3.274,10.059,46.427,46.427,0,0,1,1.344,7.993,22.763,22.763,0,0,1-.219,4.678c-.242,1.73-.533,3.454-.778,5.184a25.393,25.393,0,0,0-.129,5.888,18.315,18.315,0,0,1-.705,7.128,7.725,7.725,0,0,1-.7,1.937.444.444,0,0,0-.052.192.814.814,0,0,0,.041.194,1.055,1.055,0,0,0,.29-.168,5.337,5.337,0,0,0,.477-.648,11.986,11.986,0,0,0,1.705-5.124c.161-1.689.2-3.389.3-5.083.053-.855.133-1.708.212-2.561a3.541,3.541,0,0,1,.125-.516l.109,0a2.406,2.406,0,0,1,.081.361c.112,1.525.263,3.048.316,4.575q.091,2.619.033,5.244c-.039,1.781-.154,3.561-.256,5.341a14.531,14.531,0,0,1-.2,1.749,3.011,3.011,0,0,1-1.434,2.1,11.289,11.289,0,0,1-1.674.806c-.716.286-1.454.517-2.184.769a.315.315,0,0,1-.283-.05,1.936,1.936,0,0,1,.265-.22c.553-.319,1.117-.62,1.664-.949a13.573,13.573,0,0,0,1.175-.78,3.663,3.663,0,0,0,1.49-2.43c.1-.613.174-1.23.251-1.847a.325.325,0,0,0-.147-.278,1.756,1.756,0,0,0-.13.335,4.17,4.17,0,0,1-2.112,2.928,6.283,6.283,0,0,1-.767.38c-1.511.652-3.025,1.3-4.537,1.947a10.3,10.3,0,0,1-4.9.965,14.521,14.521,0,0,1-3.151-.653c-.819-.251-1.637-.5-2.449-.775a16.862,16.862,0,0,0-6.07-.751c-2.082.082-4.17.189-6.251.143-2.755-.061-5.512-.208-8.26-.415a22.514,22.514,0,0,1-7.334-1.692,13.464,13.464,0,0,1-5.292-3.926c-.115-.144-.229-.291-.334-.443a1.542,1.542,0,0,1,.332-2.231,3.714,3.714,0,0,1,.968-.526,24.5,24.5,0,0,1,7.931-1.539c.235-.005.47.02.705.017a3.993,3.993,0,0,0,.415-.046l.016-.121a1.8,1.8,0,0,0-.385-.135,16.512,16.512,0,0,1-6.056-2.1,33.071,33.071,0,0,1-6.138-4.4c-.415-.368-.821-.747-1.24-1.111a4.4,4.4,0,0,0-.435-.3Z" transform="translate(-698.774 -344.452)" fill="#fff"/>
        <path id="Path_654" data-name="Path 654" d="M1059.634,708.224c.044,5.03.087,9.984.131,14.964l-8.743-2.536q-.25-22.249-.5-44.543c.187-.011.334-.027.48-.027,5.448,0,10.9-.008,16.345.01a8.159,8.159,0,0,1,1.9.225,4.733,4.733,0,0,1,3.34,2.82,8.819,8.819,0,0,1,.681,3.59c.011,2.708.007,5.415.007,8.123q0,7.971.007,15.942a5.617,5.617,0,0,1-.29,1.883,2.724,2.724,0,0,1-3.135,1.931c-.113-.019-.229-.02-.426-.036,1.555,5.93,3.065,11.818,4.488,17.8-.2-.068-.327-.1-.447-.15-2.649-1.016-5.3-2.039-7.952-3.042a.784.784,0,0,1-.556-.615q-1.98-7.711-3.993-15.415c-.034-.13-.08-.258-.1-.39a.4.4,0,0,0-.355-.365C1060.248,708.347,1059.986,708.291,1059.634,708.224Zm-.2-23.881c.048,5.461.1,10.849.143,16.252l2.981.51c.481.082.959.176,1.442.238.438.055.625-.1.682-.538a3.955,3.955,0,0,0,.016-.554q-.023-3.607-.049-7.214c-.016-2.438-.026-4.876-.045-7.314-.006-.835-.285-1.115-1.113-1.159-.453-.024-.907-.055-1.36-.08C1061.258,684.438,1060.387,684.393,1059.429,684.343Z" transform="translate(-819.492 -437.911)" fill="#fff"/>
        <path id="Path_655" data-name="Path 655" d="M898.938,719.478l-8.213.271q-3.234-18.1-6.3-36.316a46.372,46.372,0,0,0,9.154,2.214c.715,5.786,1.392,11.562,2.12,17.333l.1,0c.919-5.683,1.838-11.367,2.765-17.1a49.557,49.557,0,0,0,7.923-.762c.966,6.024,1.925,12,2.884,17.982l.1,0,2.287-18.71a85.648,85.648,0,0,1,8.99-.846q-3.023,18.3-6.219,36.465l-8.207-.448q-.921-4.986-1.846-9.987c-.622-3.325-1.214-6.655-1.849-9.977l-.1.008C901.333,706.212,900.14,712.82,898.938,719.478Z" transform="translate(-714.394 -442.564)" fill="#fff"/>
        <path id="Path_656" data-name="Path 656" d="M743.148,728.351v-52.27h.531q8.322,0,16.644.006a7.958,7.958,0,0,1,1.553.137,4.444,4.444,0,0,1,3.688,3.9,8.513,8.513,0,0,1,.1,1.355q-.1,10.742-.234,21.485a11.269,11.269,0,0,1-.264,2.2,5.871,5.871,0,0,1-2.812,3.89,12.232,12.232,0,0,1-3.673,1.343c-2.223.523-4.44,1.07-6.659,1.609-.1.023-.189.059-.349.109q-.029,6.487-.057,12.989Zm8.7-43.682c-.04,6.45-.08,12.846-.12,19.29.6-.118,1.129-.221,1.654-.322.891-.17,1.783-.335,2.673-.509.672-.132.831-.329.855-1.026,0-.117,0-.235.006-.353q.076-8.045.152-16.09c0-.168.009-.337-.005-.5-.048-.561-.245-.753-.8-.727C754.817,684.5,753.374,684.584,751.85,684.669Z" transform="translate(-625.003 -437.912)" fill="#fff"/>
        <path id="Path_657" data-name="Path 657" d="M813.137,697.856q.083-7.794.174-15.586a11.8,11.8,0,0,1,.173-2.005,4.683,4.683,0,0,1,3.851-3.967,8.408,8.408,0,0,1,1.8-.207c3.8-.018,7.6-.013,11.4-.006a7.737,7.737,0,0,1,2.816.49,4.256,4.256,0,0,1,2.843,3.657,9.042,9.042,0,0,1,.075,1.256q-.128,14.427-.275,28.853a8.349,8.349,0,0,1-.212,1.745,5.265,5.265,0,0,1-2.523,3.438,9.521,9.521,0,0,1-3.609,1.205q-5.361.79-10.667,1.89a7.239,7.239,0,0,1-3.151.062,3.321,3.321,0,0,1-2.45-2.115,6.025,6.025,0,0,1-.417-2.267q.005-2.573.031-5.145.063-5.649.139-11.3Zm8.9-.734h0c0,.235,0,.471,0,.706q-.078,5.949-.157,11.9c-.011.813.16.954.956.836.05-.007.1-.021.149-.028l1.745-.256c.482-.07.965-.131,1.446-.209.6-.1.779-.3.809-.9.011-.235.007-.47.009-.706q.123-11.5.246-22.994c.005-.471.031-.942.021-1.412-.012-.569-.2-.765-.772-.754q-1.74.034-3.478.11c-.6.026-.792.238-.828.846-.006.084,0,.168,0,.252Q822.108,690.818,822.038,697.122Z" transform="translate(-669.176 -437.91)" fill="#fff"/>
        <path id="Path_658" data-name="Path 658" d="M971.423,449.929a25.167,25.167,0,0,1-2.432,10.13,26.527,26.527,0,0,1-8.608,10.548,18.222,18.222,0,0,1-7.113,3.206,12.815,12.815,0,0,1-5.993-.178,10.394,10.394,0,0,1-6.252-4.7,14.534,14.534,0,0,1-2.008-5.607,22.079,22.079,0,0,1,1.513-11.511,26.542,26.542,0,0,1,9.662-12.375,17.685,17.685,0,0,1,6.946-2.964,12.728,12.728,0,0,1,5.8.2,10.523,10.523,0,0,1,6.236,4.732,14.344,14.344,0,0,1,2.025,5.862C971.309,448.151,971.349,449.042,971.423,449.929Zm-20.12,7.409a4.514,4.514,0,0,0,2.232,3.656c.268.173.535.349.808.513,1.34.8,2.688,1.591,4.02,2.4a4.478,4.478,0,0,0,4.384.292,6.392,6.392,0,0,0,3.984-5.721,4.474,4.474,0,0,0-1.981-4.277c-1.766-1.162-3.593-2.232-5.422-3.293a4.246,4.246,0,0,0-3.083-.391C953.439,451.114,951.313,453.8,951.3,457.338Zm5.354,8.76-.019-.076a1.4,1.4,0,0,0-.191,0,7.614,7.614,0,0,1-2.707-.134,7.341,7.341,0,0,1-5.729-4.913,9.888,9.888,0,0,1-.117-6.2,12.046,12.046,0,0,1,6.615-7.9,7.794,7.794,0,0,1,5.163-.6,7.71,7.71,0,0,1,5.2,3.9c.1.178.208.352.362.61a1.508,1.508,0,0,0,0-.256,7.685,7.685,0,0,0-4.507-5.415,8.87,8.87,0,0,0-7.207.05,12.8,12.8,0,0,0-7.43,8.218,11.325,11.325,0,0,0,.206,8.042,8.1,8.1,0,0,0,9.315,4.969C955.96,466.315,956.307,466.2,956.657,466.1Z" transform="translate(-748.799 -286.152)" fill="#fff"/>
        <path id="Path_659" data-name="Path 659" d="M1000.5,683.824c.04,3.338.079,6.6.118,9.906l7.337.656v7.437l-7.251-.891c.035,3.07.069,6.07.1,9.108,3.114.5,6.19,1,9.285,1.635-.477,2.6-.944,5.156-1.423,7.769q-8.39-1.933-16.844-3.065c-.117-.39-.542-36.907-.447-37.983a.723.723,0,0,1,.169-.089,34.894,34.894,0,0,0,4.955-1.685,8.014,8.014,0,0,1,3.133-.581c2.807.044,5.615.015,8.423.015h.457c.539,2.709,1.073,5.4,1.62,8.154Z" transform="translate(-782.059 -437.885)" fill="#fff"/>
        <path id="Path_660" data-name="Path 660" d="M813.3,558.708c.15.084.295.18.451.251.367.167.75.3,1.106.485a1.475,1.475,0,0,1,.846,1.664,3.508,3.508,0,0,1-1.889,2.857,19.994,19.994,0,0,1-6.908,2.678c-3.034.485-6.05,1.078-9.076,1.625-.32-.986-.021-6.878.593-10.241a50.862,50.862,0,0,1,2.815-9.906,19.336,19.336,0,0,0,5.557,1.619c-1.649-1.007-3.346-1.923-4.963-3.038.181-.405.331-.758.5-1.1a.56.56,0,0,1,.222-.187.824.824,0,0,1,.237-.085,23.713,23.713,0,0,1,7.215-.937,14.445,14.445,0,0,1,10.3,4.835,11.454,11.454,0,0,1,2.4,4.609,2.707,2.707,0,0,1-1.072,3.031,7.73,7.73,0,0,1-2.856,1.339,17.6,17.6,0,0,1-4.041.516,5.907,5.907,0,0,1-.849-.085c-.178-.021-.354-.054-.53-.082Z" transform="translate(-659.523 -354.564)" fill="#fff"/>
        <path id="Path_661" data-name="Path 661" d="M957.6,434.454c-.189-.606-.359-1.2-.559-1.785a14.063,14.063,0,0,0-1.91-3.706,10.714,10.714,0,0,0-3.047-2.907c-1.344-.829-2.7-1.638-4.077-2.414a12.335,12.335,0,0,0-7.234-1.553,17.713,17.713,0,0,0-6.046,1.648,24.547,24.547,0,0,0-8.685,6.915A27.991,27.991,0,0,0,920.152,443a20.443,20.443,0,0,0,.357,10.222,13.366,13.366,0,0,0,4.109,6.406,13.992,13.992,0,0,0,1.637,1.173c1.1.685,2.216,1.336,3.331,1.993a12.058,12.058,0,0,0,7.322,1.571c1.064-.091,2.118-.3,3.164-.45-.1.041-.23.1-.359.142a19.008,19.008,0,0,1-8.5.957,16.579,16.579,0,0,1-12.78-8.484,19.271,19.271,0,0,1-2.467-7.465,26.752,26.752,0,0,1,4.7-18.648,26.331,26.331,0,0,1,11.063-9.513,19.822,19.822,0,0,1,8.683-1.955,16.586,16.586,0,0,1,15.3,9.42,19.948,19.948,0,0,1,1.9,5.72,1.552,1.552,0,0,1,.021.25A.453.453,0,0,1,957.6,434.454Z" transform="translate(-734.223 -275.212)" fill="#fff"/>
        <path id="Path_662" data-name="Path 662" d="M1049.415,555.393h-3.1a3.5,3.5,0,0,1,.109-.379,52.9,52.9,0,0,0,3.239-11,55.272,55.272,0,0,0,.768-6.656,50.41,50.41,0,0,0-.036-6.2,52.6,52.6,0,0,0-2.764-13.744,53.278,53.278,0,0,0-12.266-19.932.666.666,0,0,1-.164-.832c.283-.718.515-1.456.768-2.186.032-.092.065-.183.129-.361a56.138,56.138,0,0,1,13.321,61.288Z" transform="translate(-809.746 -322.768)" fill="#fff"/>
        <path id="Path_663" data-name="Path 663" d="M903.027,466.023c.181-.007.141-.156.162-.261a19.444,19.444,0,0,1,1.1-3.61,10.007,10.007,0,0,1,1.069-2,36.546,36.546,0,0,0-1.323,6.984,17.58,17.58,0,0,1,2.334-6.365,35.459,35.459,0,0,0-1.339,7.362,17.8,17.8,0,0,1,2.342-6.655c-.332,1.5-.69,3-.991,4.507a27.147,27.147,0,0,0-.453,4.612,29.864,29.864,0,0,0,.268,4.678,37.52,37.52,0,0,0,.935,4.529,16.072,16.072,0,0,1-1.836-4.271c.069.39.13.781.21,1.169.085.411.182.82.283,1.227s.209.806.279,1.222a14.067,14.067,0,0,1-1.646-3.733,24.267,24.267,0,0,0,.632,3.13,14.164,14.164,0,0,1-1.725-4.085,30.039,30.039,0,0,0,.708,3.481c-.054-.062-.113-.121-.161-.188a2.423,2.423,0,0,1-.125-.219,15.894,15.894,0,0,1-1.645-4.848,19.774,19.774,0,0,1,1.217-11.22c.275-.663.628-1.294.945-1.94l.11.04c-.044.162-.087.324-.133.486a33.764,33.764,0,0,0-1.182,5.871.4.4,0,0,1-.035.094v.464l.039,0Z" transform="translate(-725.377 -300.893)" fill="#fff"/>
        <path id="Path_664" data-name="Path 664" d="M946.438,413.33c-.479-.071-.958-.156-1.439-.209a21.12,21.12,0,0,0-10.476,1.436,14.943,14.943,0,0,0-1.7.875c-.506.287-.673.3-1.149-.026-.444-.3-.907-.578-1.341-.894a1.19,1.19,0,0,0-1.534,0c-.122.087-.245.173-.419.3l2.57,1.545c-.49.343-.915.663-1.365.945a.82.82,0,0,1-.9-.1c-.545-.332-1.092-.662-1.633-1-.495-.31-.565-.3-1.012.078-.371.315-.742.635-1.142.912a33.489,33.489,0,0,0-5,4.382c-.151.157-.3.315-.456.471a1.055,1.055,0,0,1-.152.09,2.171,2.171,0,0,1,.144-.3,24.411,24.411,0,0,1,13.5-9.751,23.856,23.856,0,0,1,3.882-.587,16.472,16.472,0,0,1,6.638.542c.911.279,1.785.68,2.674,1.031a2.855,2.855,0,0,1,.341.19Z" transform="translate(-736.455 -270.422)" fill="#fff"/>
        <path id="Path_665" data-name="Path 665" d="M818.786,628.031c-.326-.12-.665-.215-.977-.365a21.72,21.72,0,0,0-5.743-1.647c-.826-.144-1.662-.234-2.5-.313a6.776,6.776,0,0,0-3.2.56,30.165,30.165,0,0,0-5.022,2.554c-.156.1-.315.193-.477.283a.472.472,0,0,1-.145.027c-.135-.156-.079-.284.055-.389a30.645,30.645,0,0,1,3.292-2.655,1.041,1.041,0,0,0,.546-.51c-.156-.242-.391-.182-.592-.16a14.333,14.333,0,0,0-3.693.74,2.892,2.892,0,0,1-.33.081l-.268-1.286c.793-.253,1.536-.513,2.291-.727a21.085,21.085,0,0,1,5.064-.8,11.678,11.678,0,0,1,4.917.9,44.322,44.322,0,0,1,5.45,2.719c.469.275.907.6,1.36.911Z" transform="translate(-660.81 -404.591)" fill="#fff"/>
        <path id="Path_666" data-name="Path 666" d="M848.2,652.87a6.624,6.624,0,0,1,2.044.506c1.626.724,3.256,1.439,4.875,2.178a17.924,17.924,0,0,1,1.878.972,33.738,33.738,0,0,0,6.01,2.818,40.316,40.316,0,0,0,6.545,1.987c1.056.193,2.125.33,3.194.43a55.2,55.2,0,0,0,7.046.329c.521-.018,1.04-.057,1.561-.076.226-.008.453.013.681.021l.018.126a2.358,2.358,0,0,1-.42.122,51.524,51.524,0,0,1-8.452.4,35.307,35.307,0,0,1-12.408-3.046,79.4,79.4,0,0,1-8.6-4.525c-1.206-.73-2.459-1.384-3.689-2.073C848.384,652.985,848.292,652.926,848.2,652.87Z" transform="translate(-691.472 -423.226)" fill="#fff"/>
        <path id="Path_667" data-name="Path 667" d="M912.534,404c-.133,0-.229.005-.324,0-7.189-.429-13.187,2.206-18.205,7.2a27.177,27.177,0,0,0-7.543,14.054,29.615,29.615,0,0,0-.519,4.655,1.086,1.086,0,0,1-.092.441c0-.952-.06-1.909.01-2.857a26.555,26.555,0,0,1,8.9-18.136,22.192,22.192,0,0,1,10.115-5.4,16.507,16.507,0,0,1,7.051-.158c.164.033.328.07.491.111C912.451,403.925,912.472,403.955,912.534,404Z" transform="translate(-715.282 -265.438)" fill="#fff"/>
        <path id="Path_668" data-name="Path 668" d="M878.055,444.956a48.323,48.323,0,0,0-1.044,6.8,16.793,16.793,0,0,1,2.086-5.893,3.524,3.524,0,0,1-.048.356,41.99,41.99,0,0,0-1.018,5.905,26.265,26.265,0,0,0,.114,5.938c.172,1.23.418,2.45.628,3.675a.773.773,0,0,1-.015.329,15.31,15.31,0,0,1-1.332-3.132c.029.781.263,1.532.324,2.309a16.165,16.165,0,0,1-1.9-8.08A16.861,16.861,0,0,1,878.055,444.956Z" transform="translate(-708.967 -291.669)" fill="#fff"/>
        <path id="Path_669" data-name="Path 669" d="M955,568.3a4.19,4.19,0,0,1,.077-.67c.2-.744.4-1.493.658-2.22a31.053,31.053,0,0,0,1.4-5.561,14.407,14.407,0,0,1,1.266-4.073,15.25,15.25,0,0,0,1.409-4.5,5.814,5.814,0,0,0,.055-.8c0-.655-.009-1.311-.024-1.966-.014-.613.061-.694.707-.688a1.08,1.08,0,0,1,.054.226c.029.873.072,1.746.072,2.62a18.381,18.381,0,0,1-.1,2.012,17.759,17.759,0,0,0,.01,4.023,14.693,14.693,0,0,1-.151,3.466c-.055.45-.117.9-.183,1.348-.03.2-.076.4-.115.6L960,562.1c-.031-.272-.073-.543-.091-.816-.087-1.273-.191-2.546-.24-3.822a10.213,10.213,0,0,1,.143-1.5c.028-.244.124-.495-.085-.7-.218-.022-.279.127-.323.271-.423,1.379-.869,2.751-1.255,4.14-.338,1.212-.568,2.455-.921,3.662a26.458,26.458,0,0,1-.955,2.541c-.285.7-.61,1.381-.921,2.07-.059.132-.134.256-.2.384Z" transform="translate(-759.048 -356.753)" fill="#fff"/>
        <path id="Path_670" data-name="Path 670" d="M932.956,480.175c-.06.337-.118.674-.18,1.01a41.68,41.68,0,0,0-.775,5.842,18.236,18.236,0,0,0,.531,5.248,1.173,1.173,0,0,1,.045.343,8.709,8.709,0,0,1-1.285-2.263q.173.8.345,1.6l-.069.042a2.486,2.486,0,0,1-.23-.27,8.2,8.2,0,0,1-1.217-3.338,14.553,14.553,0,0,1,1.358-8.532,1.311,1.311,0,0,1,.317-.434q-.357,2.615-.715,5.229a17.8,17.8,0,0,1,1.765-4.506Z" transform="translate(-743.215 -313.48)" fill="#fff"/>
        <path id="Path_671" data-name="Path 671" d="M965.021,432.423c.52-.233.925-.432,1.342-.6a23.107,23.107,0,0,1,5.271-1.478,9.677,9.677,0,0,1,5.292.552c.123.052.242.114.36.177.024.012.034.05.059.091a.643.643,0,0,1-.134.025,16.2,16.2,0,0,0-9.128,2.551.684.684,0,0,1-.852.012C966.544,433.309,965.827,432.906,965.021,432.423Z" transform="translate(-765.391 -282.342)" fill="#fff"/>
        <path id="Path_672" data-name="Path 672" d="M922.019,399.316c.863-.208,1.72-.439,2.588-.617a20.883,20.883,0,0,1,5.413-.434,10.2,10.2,0,0,1,3.289.695,1.046,1.046,0,0,1,.443.3c-.2-.013-.395-.029-.593-.041a21.475,21.475,0,0,0-7.394.655,13.811,13.811,0,0,0-1.461.542.787.787,0,0,1-.768-.015c-.512-.318-1.018-.646-1.526-.97Z" transform="translate(-738.175 -262.107)" fill="#fff"/>
        <path id="Path_673" data-name="Path 673" d="M960.57,667.343c.313.032.625.09.938.091a27.465,27.465,0,0,1,4.841.594,15,15,0,0,0,4.551.342,20.863,20.863,0,0,0,2.475-.431,7.446,7.446,0,0,0,1.32-.6.571.571,0,0,1,.332-.085.809.809,0,0,1-.172.193,11.747,11.747,0,0,1-4.881,1.766,15.155,15.155,0,0,1-2.409-.071,29.594,29.594,0,0,1-6.157-1.449c-.281-.085-.568-.147-.853-.22Z" transform="translate(-762.565 -432.326)" fill="#fff"/>
        <path id="Path_674" data-name="Path 674" d="M956.86,439.719l1.6-1.216,2.582,1.54c-.5.378-.943.742-1.418,1.065a.619.619,0,0,1-.469-.006,2.974,2.974,0,0,1-.574-.309C958.024,440.45,957.472,440.1,956.86,439.719Z" transform="translate(-760.227 -287.586)" fill="#fff"/>
        <path id="Path_675" data-name="Path 675" d="M811.341,657.834l-.649-1.285,5.116-3.02c.026.021.043.029.05.043a.075.075,0,0,1,0,.045.094.094,0,0,1-.017.047c-.987.961-1.965,1.931-2.967,2.876C812.411,656.976,811.9,657.364,811.341,657.834Z" transform="translate(-667.74 -423.643)" fill="#fff"/>
        <path id="Path_676" data-name="Path 676" d="M917.83,403.958c-.381.208-.75.4-1.113.608a.82.82,0,0,1-.9-.019c-.533-.342-1.06-.693-1.612-1.056.462-.248.889-.5,1.337-.705a.662.662,0,0,1,.52,0c.583.326,1.145.693,1.711,1.048C917.8,403.849,917.806,403.906,917.83,403.958Z" transform="translate(-733.236 -264.951)" fill="#fff"/>
        <path id="Path_677" data-name="Path 677" d="M1074.774,698.58c.958.05,1.829.094,2.7.141.454.025.906.056,1.36.08.827.044,1.106.324,1.112,1.159.019,2.438.029,4.877.045,7.315q.023,3.607.049,7.214a4.028,4.028,0,0,1-.016.554c-.057.436-.245.594-.682.538-.483-.062-.962-.156-1.442-.238l-2.981-.51C1074.87,709.429,1074.822,704.041,1074.774,698.58Z" transform="translate(-834.836 -452.148)"/>
        <path id="Path_678" data-name="Path 678" d="M766.637,699.045c1.523-.084,2.966-.172,4.409-.241.56-.026.757.166.8.727.015.167.006.336.005.5q-.076,8.045-.152,16.09c0,.117,0,.235-.005.353-.024.7-.183.894-.855,1.026-.89.174-1.782.339-2.673.509-.526.1-1.051.2-1.654.322C766.556,711.891,766.6,705.495,766.637,699.045Z" transform="translate(-639.789 -452.288)"/>
        <path id="Path_679" data-name="Path 679" d="M837.4,709.574q.069-6.3.138-12.606c0-.084,0-.168,0-.252.036-.609.226-.821.828-.846q1.738-.074,3.478-.11c.567-.011.759.185.771.754.01.47-.016.941-.021,1.412q-.124,11.5-.247,22.994c0,.236,0,.471-.009.706-.03.6-.209.8-.809.9-.481.078-.964.139-1.446.209l-1.744.256c-.05.007-.1.021-.149.028-.8.118-.966-.023-.955-.836q.074-5.95.157-11.9c0-.236,0-.471,0-.706Z" transform="translate(-684.537 -450.363)"/>
        <path id="Path_680" data-name="Path 680" d="M972.848,481.741c.01-3.54,2.136-6.224,4.942-6.817a4.247,4.247,0,0,1,3.083.391c1.829,1.061,3.656,2.131,5.422,3.293a4.476,4.476,0,0,1,1.981,4.277,6.393,6.393,0,0,1-3.984,5.721,4.481,4.481,0,0,1-4.385-.292c-1.332-.814-2.68-1.6-4.02-2.4-.274-.164-.54-.34-.808-.513A4.516,4.516,0,0,1,972.848,481.741Zm14.184.894c-.01-.184-.013-.37-.03-.553a3.062,3.062,0,0,0-2.43-2.8,3.677,3.677,0,0,0-2.729.379,5.1,5.1,0,0,0-2.595,3.764,3.963,3.963,0,0,0,.669,3.022,2.941,2.941,0,0,0,2.77,1.323,3.489,3.489,0,0,0,1.526-.477A5.5,5.5,0,0,0,987.032,482.635Zm-10.186-6.1c.221.141.373.243.529.338,1,.612,2.007,1.22,3.006,1.836a.475.475,0,0,0,.56.009,5,5,0,0,1,1.687-.632c.093-.02.183-.05.306-.084a.829.829,0,0,0-.126-.135c-.921-.553-1.834-1.121-2.771-1.647a2.427,2.427,0,0,0-.909-.257A3.75,3.75,0,0,0,976.846,476.532Zm.1,7.782a6.882,6.882,0,0,1,.2-2.11,4.353,4.353,0,0,0-1.15,1.637,5.4,5.4,0,0,1,.083-2.324,3.615,3.615,0,0,0-1.168,1.555,5.12,5.12,0,0,1,.163-2.181,2.083,2.083,0,0,0-1.043,1.414.977.977,0,0,0,.066.49,2.383,2.383,0,0,0,1.078,1.064c.226.141.48.234.709.37.577.341,1.146.7,1.722,1.041a1.835,1.835,0,0,0,.3.106,5.624,5.624,0,0,1,.191-2.642A4.465,4.465,0,0,0,976.944,484.314Zm2.93-4.849c-.968-.573-1.892-1.119-2.814-1.669a5.484,5.484,0,0,1-.547-.356c-.465-.357-.57-.359-.979.044-.127.126-.237.27-.383.438l4.035,2.412Z" transform="translate(-770.343 -310.555)"/>
        <path id="Path_681" data-name="Path 681" d="M968.115,480.123c-.35.1-.7.216-1.05.3a8.1,8.1,0,0,1-9.314-4.969,11.326,11.326,0,0,1-.207-8.043,12.8,12.8,0,0,1,7.431-8.218,8.868,8.868,0,0,1,7.206-.05,7.687,7.687,0,0,1,4.508,5.415,1.556,1.556,0,0,1,0,.257c-.154-.259-.261-.432-.362-.611a7.707,7.707,0,0,0-5.2-3.9,7.791,7.791,0,0,0-5.163.6,12.047,12.047,0,0,0-6.616,7.9,9.885,9.885,0,0,0,.117,6.2,7.341,7.341,0,0,0,5.729,4.913,7.608,7.608,0,0,0,2.707.134,1.4,1.4,0,0,1,.191,0Z" transform="translate(-760.257 -300.177)"/>
        <path id="Path_682" data-name="Path 682" d="M905.173,477.2l.039.464-.039,0V477.2Z" transform="translate(-727.523 -312.074)"/>
        <path id="Path_683" data-name="Path 683" d="M997.952,490.159a5.5,5.5,0,0,1-2.818,4.656,3.493,3.493,0,0,1-1.526.477,2.941,2.941,0,0,1-2.77-1.323,3.965,3.965,0,0,1-.669-3.022,5.1,5.1,0,0,1,2.595-3.764,3.676,3.676,0,0,1,2.728-.379,3.062,3.062,0,0,1,2.43,2.8C997.94,489.79,997.943,489.975,997.952,490.159Z" transform="translate(-781.264 -318.079)" fill="#fff"/>
        <path id="Path_684" data-name="Path 684" d="M983.734,478.5a3.747,3.747,0,0,1,2.281-.571,2.419,2.419,0,0,1,.91.257c.937.526,1.85,1.093,2.771,1.647a.838.838,0,0,1,.125.135c-.122.034-.213.063-.306.084a5,5,0,0,0-1.687.632.475.475,0,0,1-.561-.009c-1-.616-2-1.224-3.006-1.836C984.107,478.739,983.955,478.637,983.734,478.5Z" transform="translate(-777.231 -312.519)" fill="#fff"/>
        <path id="Path_685" data-name="Path 685" d="M978.962,494.8a4.462,4.462,0,0,1,1.152-1.581,5.627,5.627,0,0,0-.191,2.642,1.833,1.833,0,0,1-.3-.105c-.576-.345-1.145-.7-1.722-1.042-.229-.135-.484-.229-.71-.37a2.389,2.389,0,0,1-1.078-1.064.984.984,0,0,1-.066-.49,2.086,2.086,0,0,1,1.043-1.414,5.139,5.139,0,0,0-.163,2.181A3.623,3.623,0,0,1,978.093,492a5.408,5.408,0,0,0-.083,2.325,4.349,4.349,0,0,1,1.15-1.637A6.866,6.866,0,0,0,978.962,494.8Z" transform="translate(-772.362 -321.042)" fill="#fff"/>
        <path id="Path_686" data-name="Path 686" d="M983.84,483.555l-.688.869-4.036-2.412c.146-.168.256-.312.383-.438.408-.4.514-.4.979-.044a5.487,5.487,0,0,0,.548.356C981.948,482.436,982.873,482.981,983.84,483.555Z" transform="translate(-774.31 -314.645)" fill="#fff"/>
    </g>
</svg>
