<?xml version="1.0" encoding="utf-8"?>
<!-- Generator: Adobe Illustrator 21.0.0, SVG Export Plug-In . SVG Version: 6.00 Build 0)  -->
<svg version="1.1" id="Capa_1" xmlns="http://www.w3.org/2000/svg" xmlns:xlink="http://www.w3.org/1999/xlink" x="0px" y="0px"
	 viewBox="0 0 512 512" style="enable-background:new 0 0 512 512;" xml:space="preserve">
<g>
	<path d="M447,33H65C29.2,33,0,62.2,0,98v241.3c0,35.8,29.2,65,65,65h69.4V449h-27.7v30h298.7v-30h-27.7v-44.7H447
		c35.8,0,65-29.2,65-65V98C512,62.2,482.8,33,447,33L447,33z M482,339.3c0,19.3-15.7,35-35,35H65c-19.3,0-35-15.7-35-35V98
		c0-19.3,15.7-35,35-35h382c19.3,0,35,15.7,35,35V339.3z M164.4,449v-44.7h183.3V449H164.4z"/>
	<path d="M214.4,313.3V134h30v179.3H214.4z"/>
	<path d="M275.4,313.3V206.7h30v106.7H275.4z"/>
	<path d="M338.4,313.3V172h30v141.3H338.4z"/>
	<path d="M143.6,313.3V186h30v127.3H143.6z"/>
</g>
</svg>
